<svg width="32" height="32" viewBox="0 0 32 32" fill="none" xmlns="http://www.w3.org/2000/svg">
  <path d="M22 2H8C6.89543 2 6 2.89543 6 4V28C6 29.1046 6.89543 30 8 30H24C25.1046 30 26 29.1046 26 28V10L18 2H22Z" fill="url(#logo-gradient)" fill-opacity="0.15"/>
  <path d="M26 10H18V2" stroke="url(#logo-gradient)" stroke-width="2" stroke-linecap="round" stroke-linejoin="round"/>
  <path d="M26 28V10L18 2H8C6.89543 2 6 2.89543 6 4V28C6 29.1046 6.89543 30 8 30H24C25.1046 30 26 29.1046 26 28Z" stroke="url(#logo-gradient)" stroke-width="2" stroke-linecap="round" stroke-linejoin="round"/>
  <path d="M19 13L13 19H17L13 25L19 19H15L19 13Z" fill="url(#logo-gradient)" stroke="url(#logo-gradient)" stroke-width="1.5" stroke-linecap="round" stroke-linejoin="round"/>
  <defs>
    <linearGradient id="logo-gradient" x1="6" y1="2" x2="26" y2="30" gradientUnits="userSpaceOnUse">
      <stop stop-color="#3b82f6"/>
      <stop offset="1" stop-color="#8b5cf6"/>
    </linearGradient>
  </defs>
</svg>
